<svg width="31" height="27" viewBox="0 0 31 27" fill="none" xmlns="http://www.w3.org/2000/svg">
<path d="M7.47087 27C5.17718 27 3.34223 26.1667 1.96602 24.5C0.65534 22.7667 0 20.5333 0 17.8C0 14.0667 0.983009 10.7 2.94903 7.7C4.98058 4.63333 8.06068 2.06666 12.1893 0L13.2706 1.6C11.3046 2.8 9.50243 4.5 7.86408 6.7C6.29126 8.83333 5.50485 11 5.50485 13.2C5.50485 13.8 5.66869 14.3 5.99636 14.7C6.32403 15.0333 6.81553 15.2 7.47087 15.2C9.10922 15.2 10.4854 15.8 11.5995 17C12.7791 18.1333 13.3689 19.5333 13.3689 21.2C13.3689 22.8667 12.7791 24.2667 11.5995 25.4C10.4854 26.4667 9.10922 27 7.47087 27ZM24.4769 27C22.1832 27 20.3483 26.1667 18.9721 24.5C17.6614 22.7667 17.0061 20.5333 17.0061 17.8C17.0061 14.0667 17.9891 10.7 19.9551 7.7C21.9866 4.63333 25.0667 2.06666 29.1954 0L30.2767 1.6C28.3107 2.8 26.5085 4.5 24.8701 6.7C23.2973 8.83333 22.5109 11 22.5109 13.2C22.5109 13.8 22.6748 14.3 23.0024 14.7C23.3301 15.0333 23.8216 15.2 24.4769 15.2C26.1153 15.2 27.4915 15.8 28.6056 17C29.7852 18.1333 30.375 19.5333 30.375 21.2C30.375 22.8667 29.7852 24.2667 28.6056 25.4C27.4915 26.4667 26.1153 27 24.4769 27Z" fill="white"/>
</svg>
