<svg width="22" height="22" viewBox="0 0 22 22" fill="none" xmlns="http://www.w3.org/2000/svg">
<path d="M11 21C16.5228 21 21 16.5228 21 11C21 5.47715 16.5228 1 11 1C5.47715 1 1 5.47715 1 11C1 16.5228 5.47715 21 11 21Z" stroke="white" stroke-width="2" stroke-linecap="round" stroke-linejoin="round"/>
<path d="M14 8.354C13.4626 7.7447 12.7523 7.31351 11.9638 7.11779C11.1753 6.92208 10.3458 6.97112 9.58588 7.2584C8.8259 7.54568 8.17143 8.05757 7.70954 8.72596C7.24765 9.39435 7.00024 10.1875 7.00024 11C7.00024 11.8125 7.24765 12.6057 7.70954 13.274C8.17143 13.9424 8.8259 14.4543 9.58588 14.7416C10.3458 15.0289 11.1753 15.0779 11.9638 14.8822C12.7523 14.6865 13.4626 14.2553 14 13.646" stroke="white" stroke-width="2" stroke-linecap="round" stroke-linejoin="round"/>
</svg>
