<svg width="54" height="54" viewBox="0 0 54 54" fill="none" xmlns="http://www.w3.org/2000/svg">
<circle cx="26.7564" cy="26.7564" r="25.7564" stroke="#646464" stroke-width="1.67333"/>
<path fill-rule="evenodd" clip-rule="evenodd" d="M16.3146 26.4688C16.3146 31.8331 20.2106 36.2938 25.3061 37.1984V29.4054H22.6087V26.4085H25.3061V24.0105C25.3061 21.313 27.0442 19.815 29.5025 19.815C30.2811 19.815 31.121 19.9346 31.8996 20.0542V22.8119H30.5212C29.2022 22.8119 28.9027 23.471 28.9027 24.3108V26.4085H31.78L31.3008 29.4054H28.9027V37.1984C33.9983 36.2938 37.8943 31.834 37.8943 26.4688C37.8943 20.5011 33.0389 15.6187 27.1044 15.6187C21.17 15.6187 16.3146 20.5011 16.3146 26.4688Z" fill="white"/>
</svg>
