<svg width="55" height="54" viewBox="0 0 55 54" fill="none" xmlns="http://www.w3.org/2000/svg">
<circle cx="27.5565" cy="26.7564" r="25.7564" stroke="#646464" stroke-width="1.67333"/>
<path fill-rule="evenodd" clip-rule="evenodd" d="M17.6967 25.3566C17.6967 21.3689 17.6967 19.3746 18.936 18.1363C20.1743 16.897 22.1686 16.897 26.1563 16.897H28.2712C32.2588 16.897 34.2532 16.897 35.4915 18.1363C36.7308 19.3746 36.7308 21.3689 36.7308 25.3566V27.4715C36.7308 31.4592 36.7308 33.4535 35.4915 34.6918C34.2532 35.9311 32.2588 35.9311 28.2712 35.9311H26.1563C22.1686 35.9311 20.1743 35.9311 18.936 34.6918C17.6967 33.4535 17.6967 31.4592 17.6967 27.4715V25.3566ZM33.5585 21.6555C33.5585 22.0762 33.3913 22.4796 33.0939 22.7771C32.7964 23.0746 32.393 23.2417 31.9723 23.2417C31.5516 23.2417 31.1481 23.0746 30.8507 22.7771C30.5532 22.4796 30.3861 22.0762 30.3861 21.6555C30.3861 21.2348 30.5532 20.8314 30.8507 20.5339C31.1481 20.2364 31.5516 20.0693 31.9723 20.0693C32.393 20.0693 32.7964 20.2364 33.0939 20.5339C33.3913 20.8314 33.5585 21.2348 33.5585 21.6555ZM29.3286 27.4715C29.3286 28.0324 29.1058 28.5704 28.7092 28.967C28.3126 29.3636 27.7746 29.5864 27.2137 29.5864C26.6528 29.5864 26.1149 29.3636 25.7183 28.967C25.3217 28.5704 25.0988 28.0324 25.0988 27.4715C25.0988 26.9106 25.3217 26.3727 25.7183 25.976C26.1149 25.5794 26.6528 25.3566 27.2137 25.3566C27.7746 25.3566 28.3126 25.5794 28.7092 25.976C29.1058 26.3727 29.3286 26.9106 29.3286 27.4715ZM31.4436 27.4715C31.4436 28.5933 30.9979 29.6692 30.2047 30.4624C29.4114 31.2557 28.3356 31.7013 27.2137 31.7013C26.0919 31.7013 25.0161 31.2557 24.2228 30.4624C23.4296 29.6692 22.9839 28.5933 22.9839 27.4715C22.9839 26.3497 23.4296 25.2738 24.2228 24.4806C25.0161 23.6873 26.0919 23.2417 27.2137 23.2417C28.3356 23.2417 29.4114 23.6873 30.2047 24.4806C30.9979 25.2738 31.4436 26.3497 31.4436 27.4715Z" fill="white"/>
</svg>
