<svg width="54" height="54" viewBox="0 0 54 54" fill="none" xmlns="http://www.w3.org/2000/svg">
<circle cx="26.6231" cy="26.7564" r="25.7564" stroke="#646464" stroke-width="1.67333"/>
<path fill-rule="evenodd" clip-rule="evenodd" d="M16.8774 19.3359C16.8774 18.9041 17.049 18.4899 17.3544 18.1845C17.6598 17.8791 18.074 17.7075 18.5059 17.7075H34.7386C34.9526 17.7072 35.1646 17.749 35.3625 17.8307C35.5603 17.9124 35.7401 18.0323 35.8915 18.1836C36.0429 18.3348 36.163 18.5145 36.2449 18.7122C36.3268 18.91 36.3689 19.1219 36.3688 19.3359V35.5687C36.369 35.7828 36.3271 35.9948 36.2453 36.1926C36.1635 36.3904 36.0435 36.5702 35.8922 36.7216C35.7408 36.873 35.5611 36.9931 35.3633 37.075C35.1656 37.1569 34.9536 37.199 34.7395 37.1989H18.5059C18.2919 37.1989 18.0801 37.1567 17.8825 37.0748C17.6849 36.9929 17.5053 36.8729 17.3541 36.7216C17.2029 36.5703 17.0829 36.3907 17.0011 36.193C16.9194 35.9953 16.8773 35.7835 16.8774 35.5696V19.3359ZM24.5925 25.139H27.2318V26.4645C27.6127 25.7025 28.5873 25.0168 30.0518 25.0168C32.8595 25.0168 33.5248 26.5344 33.5248 29.3191V34.4772H30.6835V29.9534C30.6835 28.3675 30.3026 27.4727 29.3351 27.4727C27.9928 27.4727 27.4347 28.4375 27.4347 29.9534V34.4772H24.5925V25.139ZM19.7196 34.3558H22.5618V25.0168H19.7196V34.3558ZM22.9685 21.9708C22.9738 22.2142 22.9305 22.4561 22.8411 22.6825C22.7517 22.9089 22.618 23.1152 22.4477 23.2892C22.2775 23.4632 22.0743 23.6014 21.8499 23.6958C21.6255 23.7902 21.3846 23.8388 21.1412 23.8388C20.8978 23.8388 20.6568 23.7902 20.4324 23.6958C20.2081 23.6014 20.0048 23.4632 19.8346 23.2892C19.6644 23.1152 19.5307 22.9089 19.4412 22.6825C19.3518 22.4561 19.3085 22.2142 19.3139 21.9708C19.3244 21.4931 19.5215 21.0386 19.8631 20.7045C20.2046 20.3704 20.6634 20.1833 21.1412 20.1833C21.619 20.1833 22.0777 20.3704 22.4193 20.7045C22.7608 21.0386 22.958 21.4931 22.9685 21.9708Z" fill="white"/>
</svg>
