<svg width="259" height="233" viewBox="0 0 259 233" fill="none" xmlns="http://www.w3.org/2000/svg">
<path d="M66 47.1069C82.5891 27.969 119.166 -7.93097 132.761 1.57197C149.755 13.4506 242.613 86.7023 259 114.419L255.44 195.927C255.516 204.215 254.402 230.953 247.5 233H207.5C204.465 168.547 183 88 66 47.1069Z" fill="#51DEF4"/>
<path d="M24.3812 187.588C17.4287 189.296 11.5936 193.872 8.67604 199.973C7.18623 203.084 7 204.243 7 209.612C7 215.103 7.18623 216.079 8.73812 219.069C14.2008 229.563 25.871 234.322 36.9205 230.6C42.6315 228.648 48.6528 222.974 50.7013 217.544C52.6877 212.297 52.3773 204.304 49.8943 199.668C46.6664 193.445 41.5762 189.479 34.3754 187.588C30.5888 186.611 28.5403 186.611 24.3812 187.588Z" fill="black"/>
<path d="M53.6768 55.8314C46.625 61.2032 40.2143 66.1697 39.4664 66.9805C38.6116 67.69 36.261 69.6157 34.1241 71.136C31.8804 72.6564 29.9572 74.0753 29.6367 74.4808C29.3161 74.7848 26.2176 77.2173 22.6917 79.9539C8.05395 91.103 4.66944 93.8396 2.95992 97.9951C1.57093 101.543 0.786199 106.405 0.999889 128.5L2.39116 154.957L11.473 155.565C51.2194 158.2 81.8839 189.519 81.9907 227.425V233L112.121 232.797C128.789 232.595 156.889 232.493 174.732 232.493H206.999V222.56C206.999 208.168 203.687 186.883 199.52 174.214C195.247 161.342 193.216 156.477 187.661 145.531C176.549 123.841 166.505 110.36 149.089 93.7382C132.528 77.9268 114.685 65.7642 94.2779 56.5409C85.0892 52.3854 68.3146 46 66.4982 46C66.4982 46 60.6217 50.4596 53.6768 55.8314Z" fill="#306FA3"/>
<path d="M8.02564 117.021C4.41245 116.683 1.50183 120.58 1 122.548L2 145.748L3 167.435C29.2625 166.176 79.4864 178.359 78.2821 233H138C135.993 120.395 12.5421 117.443 8.02564 117.021Z" fill="#213E80"/>
</svg>
