<svg width="22" height="25" viewBox="0 0 22 25" fill="none" xmlns="http://www.w3.org/2000/svg">
<path d="M0 8.43876H2.70749V0.316284H5.41498L10.0448 8.43876H16.245V0.316284H18.9524V8.43876H21.6599V11.1463H18.9524V13.8537H21.6599V16.5612H18.9524V24.6837H16.245L11.6016 16.5612H5.41498V24.6837H2.70749V16.5612H0V13.8537H2.70749V11.1463H0V8.43876ZM5.41498 8.43876H6.94472L5.41498 5.77188V8.43876ZM5.41498 11.1463V13.8537H10.0448L8.50153 11.1463H5.41498ZM16.245 19.2687V16.5612H14.6881L16.245 19.2687ZM11.5881 11.1463L13.1449 13.8537H16.245V11.1463H11.5881Z" fill="white"/>
</svg>
