<svg width="18" height="20" viewBox="0 0 18 20" fill="none" xmlns="http://www.w3.org/2000/svg">
<path d="M0 6.53866H2.14659V0.098877H4.29319L7.96386 6.53866H12.8796V0.098877H15.0262V6.53866H17.1728V8.68526H15.0262V10.8318H17.1728V12.9784H15.0262V19.4182H12.8796L9.19816 12.9784H4.29319V19.4182H2.14659V12.9784H0V10.8318H2.14659V8.68526H0V6.53866ZM4.29319 6.53866H5.50601L4.29319 4.42426V6.53866ZM4.29319 8.68526V10.8318H7.96386L6.74031 8.68526H4.29319ZM12.8796 15.125V12.9784H11.6453L12.8796 15.125ZM9.18742 8.68526L10.4217 10.8318H12.8796V8.68526H9.18742Z" fill="black"/>
</svg>
