<svg width="18" height="20" viewBox="0 0 18 20" fill="none" xmlns="http://www.w3.org/2000/svg">
<path d="M0 6.78012H2.14659V0.340332H4.29319L7.96386 6.78012H12.8796V0.340332H15.0262V6.78012H17.1728V8.92671H15.0262V11.0733H17.1728V13.2199H15.0262V19.6597H12.8796L9.19816 13.2199H4.29319V19.6597H2.14659V13.2199H0V11.0733H2.14659V8.92671H0V6.78012ZM4.29319 6.78012H5.50601L4.29319 4.66572V6.78012ZM4.29319 8.92671V11.0733H7.96386L6.74031 8.92671H4.29319ZM12.8796 15.3665V13.2199H11.6453L12.8796 15.3665ZM9.18742 8.92671L10.4217 11.0733H12.8796V8.92671H9.18742Z" fill="white"/>
</svg>
