<svg width="132" height="34" viewBox="0 0 132 34" fill="none" xmlns="http://www.w3.org/2000/svg">
<path d="M16.5 0.5L20.2045 11.9012H32.1924L22.494 18.9476L26.1985 30.3488L16.5 23.3024L6.80154 30.3488L10.506 18.9476L0.807568 11.9012H12.7955L16.5 0.5Z" fill="#FFF500"/>
<path d="M49.5 0.5L53.2045 11.9012H65.1924L55.494 18.9476L59.1985 30.3488L49.5 23.3024L39.8015 30.3488L43.506 18.9476L33.8076 11.9012H45.7955L49.5 0.5Z" fill="#FFF500"/>
<path d="M82.5 0.5L86.2045 11.9012H98.1924L88.494 18.9476L92.1985 30.3488L82.5 23.3024L72.8015 30.3488L76.506 18.9476L66.8076 11.9012H78.7955L82.5 0.5Z" fill="#FFF500"/>
<path d="M115.5 0.5L119.204 11.9012H131.192L121.494 18.9476L125.198 30.3488L115.5 23.3024L105.802 30.3488L109.506 18.9476L99.8076 11.9012H111.796L115.5 0.5Z" fill="#D9D9D9"/>
</svg>
