<svg width="54" height="54" viewBox="0 0 54 54" fill="none" xmlns="http://www.w3.org/2000/svg">
<circle cx="26.6898" cy="26.7564" r="25.7564" stroke="#646464" stroke-width="1.67333"/>
<path d="M38.0735 19.2407C37.2197 19.6174 36.3025 19.872 35.3382 19.9871C36.3331 19.3942 37.0775 18.4612 37.4324 17.362C36.4976 17.9149 35.4746 18.3041 34.4077 18.5126C33.6903 17.7498 32.74 17.2442 31.7045 17.0744C30.6689 16.9045 29.606 17.0798 28.6807 17.5731C27.7555 18.0664 27.0197 18.8501 26.5875 19.8025C26.1554 20.7549 26.0511 21.8227 26.2908 22.8402C24.3968 22.7455 22.5439 22.2552 20.8524 21.4013C19.1609 20.5474 17.6687 19.3488 16.4725 17.8834C16.0634 18.586 15.8283 19.4006 15.8283 20.2681C15.8278 21.0491 16.0209 21.8181 16.3905 22.5069C16.7601 23.1958 17.2947 23.7831 17.947 24.2168C17.1906 24.1929 16.4509 23.9893 15.7894 23.6232V23.6843C15.7893 24.7797 16.1698 25.8413 16.8663 26.6891C17.5628 27.5369 18.5324 28.1187 19.6106 28.3356C18.9089 28.5247 18.1733 28.5526 17.4592 28.4171C17.7634 29.3596 18.356 30.1838 19.1539 30.7742C19.9519 31.3647 20.9153 31.6919 21.9093 31.7101C20.2219 33.0291 18.1381 33.7446 15.9929 33.7415C15.6129 33.7416 15.2332 33.7195 14.8558 33.6753C17.0333 35.0694 19.568 35.8093 22.1567 35.8065C30.9198 35.8065 35.7104 28.579 35.7104 22.3107C35.7104 22.107 35.7053 21.9014 35.6961 21.6977C36.6279 21.0267 37.4323 20.1957 38.0714 19.2437L38.0735 19.2407Z" fill="white"/>
</svg>
